<svg xmlns="http://www.w3.org/2000/svg" xmlns:xlink="http://www.w3.org/1999/xlink" contentStyleType="text/css" data-diagram-type="CLASS" height="877px" preserveAspectRatio="none" style="width:1532px;height:877px;background:#F9F9F9;" version="1.1" viewBox="0 0 1532 877" width="1532px" zoomAndPan="magnify"><defs/><g><rect fill="#F9F9F9" height="877" style="stroke:transparent;stroke-width:1;" width="1532" x="0" y="0"/><!--cluster graph--><g id="cluster_graph"><path d="M9.5,457 L54.8613,457 A5.25,5.25 0 0 1 58.3613,460.5 L65.3613,479.2969 L951.5,479.2969 A3.5,3.5 0 0 1 955,482.7969 L955,866.5 A3.5,3.5 0 0 1 951.5,870 L9.5,870 A3.5,3.5 0 0 1 6,866.5 L6,460.5 A3.5,3.5 0 0 1 9.5,457 " fill="transparent" style="stroke:#393939;stroke-width:1;"/><line style="stroke:#393939;stroke-width:1;" x1="6" x2="65.3613" y1="479.2969" y2="479.2969"/><text fill="#000000" font-family="sans-serif" font-size="14" font-weight="bold" lengthAdjust="spacing" textLength="46.3613" x="10" y="471.9951">graph</text></g><!--cluster input_output_engine--><g id="cluster_input_output_engine"><path d="M468.5,6 L629.6484,6 A5.25,5.25 0 0 1 633.1484,9.5 L640.1484,28.2969 L965.5,28.2969 A3.5,3.5 0 0 1 969,31.7969 L969,404.5 A3.5,3.5 0 0 1 965.5,408 L468.5,408 A3.5,3.5 0 0 1 465,404.5 L465,9.5 A3.5,3.5 0 0 1 468.5,6 " fill="transparent" style="stroke:#393939;stroke-width:1;"/><line style="stroke:#393939;stroke-width:1;" x1="465" x2="640.1484" y1="28.2969" y2="28.2969"/><text fill="#000000" font-family="sans-serif" font-size="14" font-weight="bold" lengthAdjust="spacing" textLength="162.1484" x="469" y="20.9951">input_output_engine</text></g><!--cluster query_path--><g id="cluster_query_path"><path d="M1080.5,155 L1168.1416,155 A5.25,5.25 0 0 1 1171.6416,158.5 L1178.6416,177.2969 L1521.5,177.2969 A3.5,3.5 0 0 1 1525,180.7969 L1525,253.5 A3.5,3.5 0 0 1 1521.5,257 L1080.5,257 A3.5,3.5 0 0 1 1077,253.5 L1077,158.5 A3.5,3.5 0 0 1 1080.5,155 " fill="transparent" style="stroke:#393939;stroke-width:1;"/><line style="stroke:#393939;stroke-width:1;" x1="1077" x2="1178.6416" y1="177.2969" y2="177.2969"/><text fill="#000000" font-family="sans-serif" font-size="14" font-weight="bold" lengthAdjust="spacing" textLength="88.6416" x="1081" y="169.9951">query_path</text></g><!--cluster types--><g id="cluster_types"><path d="M338.5,306 L381.168,306 A5.25,5.25 0 0 1 384.668,309.5 L391.668,328.2969 L437.5,328.2969 A3.5,3.5 0 0 1 441,331.7969 L441,404.5 A3.5,3.5 0 0 1 437.5,408 L338.5,408 A3.5,3.5 0 0 1 335,404.5 L335,309.5 A3.5,3.5 0 0 1 338.5,306 " fill="transparent" style="stroke:#393939;stroke-width:1;"/><line style="stroke:#393939;stroke-width:1;" x1="335" x2="391.668" y1="328.2969" y2="328.2969"/><text fill="#000000" font-family="sans-serif" font-size="14" font-weight="bold" lengthAdjust="spacing" textLength="43.668" x="339" y="320.9951">types</text></g><!--class Graph--><g id="elem_Graph"><rect codeLine="6" fill="#F1F1F1" height="32" id="Graph" rx="3.5" ry="3.5" style="stroke:#181818;stroke-width:0.5;" width="74.9434" x="582.53" y="729"/><ellipse cx="597.53" cy="745" fill="#B4A7E5" rx="11" ry="11" style="stroke:#181818;stroke-width:1;"/><path d="M593.4519,740.7656 L593.4519,738.6094 L600.8425,738.6094 L600.8425,740.7656 L598.3738,740.7656 L598.3738,748.8438 L600.8425,748.8438 L600.8425,751 L593.4519,751 L593.4519,748.8438 L595.9206,748.8438 L595.9206,740.7656 L593.4519,740.7656 Z " fill="#000000"/><text fill="#000000" font-family="sans-serif" font-size="14" font-style="italic" lengthAdjust="spacing" textLength="42.9434" x="611.53" y="749.8467">Graph</text></g><!--class GraphBuilder--><g id="elem_GraphBuilder"><rect codeLine="7" fill="#F1F1F1" height="32" id="GraphBuilder" rx="3.5" ry="3.5" style="stroke:#181818;stroke-width:0.5;" width="124.4561" x="779.77" y="729"/><ellipse cx="794.77" cy="745" fill="#B4A7E5" rx="11" ry="11" style="stroke:#181818;stroke-width:1;"/><path d="M790.6919,740.7656 L790.6919,738.6094 L798.0825,738.6094 L798.0825,740.7656 L795.6138,740.7656 L795.6138,748.8438 L798.0825,748.8438 L798.0825,751 L790.6919,751 L790.6919,748.8438 L793.1606,748.8438 L793.1606,740.7656 L790.6919,740.7656 Z " fill="#000000"/><text fill="#000000" font-family="sans-serif" font-size="14" font-style="italic" lengthAdjust="spacing" textLength="92.4561" x="808.77" y="749.8467">GraphBuilder</text></g><!--class DefaultGraph--><g id="elem_DefaultGraph"><rect codeLine="13" fill="#F1F1F1" height="32" id="DefaultGraph" rx="3.5" ry="3.5" style="stroke:#181818;stroke-width:0.5;" width="126.0967" x="539.95" y="822"/><ellipse cx="554.95" cy="838" fill="#ADD1B2" rx="11" ry="11" style="stroke:#181818;stroke-width:1;"/><path d="M557.9188,843.6406 Q557.3406,843.9375 556.7,844.0781 Q556.0594,844.2344 555.3563,844.2344 Q552.8563,844.2344 551.5281,842.5938 Q550.2156,840.9375 550.2156,837.8125 Q550.2156,834.6875 551.5281,833.0313 Q552.8563,831.375 555.3563,831.375 Q556.0594,831.375 556.7,831.5313 Q557.3563,831.6875 557.9188,831.9844 L557.9188,834.7031 Q557.2938,834.125 556.7,833.8594 Q556.1063,833.5781 555.4813,833.5781 Q554.1375,833.5781 553.45,834.6563 Q552.7625,835.7188 552.7625,837.8125 Q552.7625,839.9063 553.45,840.9844 Q554.1375,842.0469 555.4813,842.0469 Q556.1063,842.0469 556.7,841.7813 Q557.2938,841.5 557.9188,840.9219 L557.9188,843.6406 Z " fill="#000000"/><text fill="#000000" font-family="sans-serif" font-size="14" lengthAdjust="spacing" textLength="94.0967" x="568.95" y="842.8467">DefaultGraph</text></g><!--class DefaultGraphBuilder--><g id="elem_DefaultGraphBuilder"><rect codeLine="15" fill="#F1F1F1" height="32" id="DefaultGraphBuilder" rx="3.5" ry="3.5" style="stroke:#181818;stroke-width:0.5;" width="175.6094" x="763.2" y="822"/><ellipse cx="778.2" cy="838" fill="#ADD1B2" rx="11" ry="11" style="stroke:#181818;stroke-width:1;"/><path d="M781.1688,843.6406 Q780.5906,843.9375 779.95,844.0781 Q779.3094,844.2344 778.6063,844.2344 Q776.1063,844.2344 774.7781,842.5938 Q773.4656,840.9375 773.4656,837.8125 Q773.4656,834.6875 774.7781,833.0313 Q776.1063,831.375 778.6063,831.375 Q779.3094,831.375 779.95,831.5313 Q780.6063,831.6875 781.1688,831.9844 L781.1688,834.7031 Q780.5438,834.125 779.95,833.8594 Q779.3563,833.5781 778.7313,833.5781 Q777.3875,833.5781 776.7,834.6563 Q776.0125,835.7188 776.0125,837.8125 Q776.0125,839.9063 776.7,840.9844 Q777.3875,842.0469 778.7313,842.0469 Q779.3563,842.0469 779.95,841.7813 Q780.5438,841.5 781.1688,840.9219 L781.1688,843.6406 Z " fill="#000000"/><text fill="#000000" font-family="sans-serif" font-size="14" lengthAdjust="spacing" textLength="143.6094" x="792.2" y="842.8467">DefaultGraphBuilder</text></g><!--class QueryHandler--><g id="elem_QueryHandler"><rect codeLine="24" fill="#F1F1F1" height="32" id="QueryHandler" rx="3.5" ry="3.5" style="stroke:#181818;stroke-width:0.5;" width="254.9492" x="497.53" y="511"/><ellipse cx="512.53" cy="527" fill="#ADD1B2" rx="11" ry="11" style="stroke:#181818;stroke-width:1;"/><path d="M515.4988,532.6406 Q514.9206,532.9375 514.28,533.0781 Q513.6394,533.2344 512.9363,533.2344 Q510.4363,533.2344 509.1081,531.5938 Q507.7956,529.9375 507.7956,526.8125 Q507.7956,523.6875 509.1081,522.0313 Q510.4363,520.375 512.9363,520.375 Q513.6394,520.375 514.28,520.5313 Q514.9363,520.6875 515.4988,520.9844 L515.4988,523.7031 Q514.8738,523.125 514.28,522.8594 Q513.6863,522.5781 513.0613,522.5781 Q511.7175,522.5781 511.03,523.6563 Q510.3425,524.7188 510.3425,526.8125 Q510.3425,528.9063 511.03,529.9844 Q511.7175,531.0469 513.0613,531.0469 Q513.6863,531.0469 514.28,530.7813 Q514.8738,530.5 515.4988,529.9219 L515.4988,532.6406 Z " fill="#000000"/><text fill="#000000" font-family="sans-serif" font-size="14" lengthAdjust="spacing" textLength="97.6719" x="526.53" y="531.8467">QueryHandler</text><rect fill="#FFFFFF" height="15.9688" style="stroke:#181818;stroke-width:1;stroke-dasharray:2.0,2.0;" width="123.2773" x="632.2019" y="508"/><text fill="#000000" font-family="sans-serif" font-size="12" font-style="italic" lengthAdjust="spacing" textLength="121.2773" x="633.2019" y="520.1387">G: Graph, BS: BitSet</text></g><!--class BfsSolver--><g id="elem_BfsSolver"><rect codeLine="26" fill="#F1F1F1" height="32" id="BfsSolver" rx="3.5" ry="3.5" style="stroke:#181818;stroke-width:0.5;" width="223.1006" x="572.45" y="620"/><ellipse cx="587.45" cy="636" fill="#ADD1B2" rx="11" ry="11" style="stroke:#181818;stroke-width:1;"/><path d="M590.4188,641.6406 Q589.8406,641.9375 589.2,642.0781 Q588.5594,642.2344 587.8563,642.2344 Q585.3563,642.2344 584.0281,640.5938 Q582.7156,638.9375 582.7156,635.8125 Q582.7156,632.6875 584.0281,631.0313 Q585.3563,629.375 587.8563,629.375 Q588.5594,629.375 589.2,629.5313 Q589.8563,629.6875 590.4188,629.9844 L590.4188,632.7031 Q589.7938,632.125 589.2,631.8594 Q588.6063,631.5781 587.9813,631.5781 Q586.6375,631.5781 585.95,632.6563 Q585.2625,633.7188 585.2625,635.8125 Q585.2625,637.9063 585.95,638.9844 Q586.6375,640.0469 587.9813,640.0469 Q588.6063,640.0469 589.2,639.7813 Q589.7938,639.5 590.4188,638.9219 L590.4188,641.6406 Z " fill="#000000"/><text fill="#000000" font-family="sans-serif" font-size="14" lengthAdjust="spacing" textLength="65.8232" x="601.45" y="640.8467">BfsSolver</text><rect fill="#FFFFFF" height="15.9688" style="stroke:#181818;stroke-width:1;stroke-dasharray:2.0,2.0;" width="123.2773" x="675.2732" y="617"/><text fill="#000000" font-family="sans-serif" font-size="12" font-style="italic" lengthAdjust="spacing" textLength="121.2773" x="676.2732" y="629.1387">G: Graph, BS: BitSet</text></g><!--class DfsSolver--><g id="elem_DfsSolver"><rect codeLine="28" fill="#F1F1F1" height="32" id="DfsSolver" rx="3.5" ry="3.5" style="stroke:#181818;stroke-width:0.5;" width="224.2764" x="21.86" y="620"/><ellipse cx="36.86" cy="636" fill="#ADD1B2" rx="11" ry="11" style="stroke:#181818;stroke-width:1;"/><path d="M39.8288,641.6406 Q39.2506,641.9375 38.61,642.0781 Q37.9694,642.2344 37.2663,642.2344 Q34.7663,642.2344 33.4381,640.5938 Q32.1256,638.9375 32.1256,635.8125 Q32.1256,632.6875 33.4381,631.0313 Q34.7663,629.375 37.2663,629.375 Q37.9694,629.375 38.61,629.5313 Q39.2663,629.6875 39.8288,629.9844 L39.8288,632.7031 Q39.2038,632.125 38.61,631.8594 Q38.0163,631.5781 37.3913,631.5781 Q36.0475,631.5781 35.36,632.6563 Q34.6725,633.7188 34.6725,635.8125 Q34.6725,637.9063 35.36,638.9844 Q36.0475,640.0469 37.3913,640.0469 Q38.0163,640.0469 38.61,639.7813 Q39.2038,639.5 39.8288,638.9219 L39.8288,641.6406 Z " fill="#000000"/><text fill="#000000" font-family="sans-serif" font-size="14" lengthAdjust="spacing" textLength="66.999" x="50.86" y="640.8467">DfsSolver</text><rect fill="#FFFFFF" height="15.9688" style="stroke:#181818;stroke-width:1;stroke-dasharray:2.0,2.0;" width="123.2773" x="125.859" y="617"/><text fill="#000000" font-family="sans-serif" font-size="12" font-style="italic" lengthAdjust="spacing" textLength="121.2773" x="126.859" y="629.1387">G: Graph, BS: BitSet</text></g><!--class SingleNodeQuerySolver--><g id="elem_SingleNodeQuerySolver"><rect codeLine="30" fill="#F1F1F1" height="32" id="SingleNodeQuerySolver" rx="3.5" ry="3.5" style="stroke:#181818;stroke-width:0.5;" width="256.085" x="280.96" y="620"/><ellipse cx="295.96" cy="636" fill="#ADD1B2" rx="11" ry="11" style="stroke:#181818;stroke-width:1;"/><path d="M298.9288,641.6406 Q298.3506,641.9375 297.71,642.0781 Q297.0694,642.2344 296.3663,642.2344 Q293.8663,642.2344 292.5381,640.5938 Q291.2256,638.9375 291.2256,635.8125 Q291.2256,632.6875 292.5381,631.0313 Q293.8663,629.375 296.3663,629.375 Q297.0694,629.375 297.71,629.5313 Q298.3663,629.6875 298.9288,629.9844 L298.9288,632.7031 Q298.3038,632.125 297.71,631.8594 Q297.1163,631.5781 296.4913,631.5781 Q295.1475,631.5781 294.46,632.6563 Q293.7725,633.7188 293.7725,635.8125 Q293.7725,637.9063 294.46,638.9844 Q295.1475,640.0469 296.4913,640.0469 Q297.1163,640.0469 297.71,639.7813 Q298.3038,639.5 298.9288,638.9219 L298.9288,641.6406 Z " fill="#000000"/><text fill="#000000" font-family="sans-serif" font-size="14" lengthAdjust="spacing" textLength="166.1201" x="309.96" y="640.8467">SingleNodeQuerySolver</text><rect fill="#FFFFFF" height="15.9688" style="stroke:#181818;stroke-width:1;stroke-dasharray:2.0,2.0;" width="55.9648" x="484.0801" y="617"/><text fill="#000000" font-family="sans-serif" font-size="12" font-style="italic" lengthAdjust="spacing" textLength="53.9648" x="485.0801" y="629.1387">G: Graph</text></g><!--class InputOutputEngine--><g id="elem_InputOutputEngine"><rect codeLine="43" fill="#F1F1F1" height="32" id="InputOutputEngine" rx="3.5" ry="3.5" style="stroke:#181818;stroke-width:0.5;" width="164.8633" x="762.57" y="60"/><ellipse cx="777.57" cy="76" fill="#B4A7E5" rx="11" ry="11" style="stroke:#181818;stroke-width:1;"/><path d="M773.4919,71.7656 L773.4919,69.6094 L780.8825,69.6094 L780.8825,71.7656 L778.4138,71.7656 L778.4138,79.8438 L780.8825,79.8438 L780.8825,82 L773.4919,82 L773.4919,79.8438 L775.9606,79.8438 L775.9606,71.7656 L773.4919,71.7656 Z " fill="#000000"/><text fill="#000000" font-family="sans-serif" font-size="14" font-style="italic" lengthAdjust="spacing" textLength="132.8633" x="791.57" y="80.8467">InputOutputEngine</text></g><!--class Tokenizer--><g id="elem_Tokenizer"><rect codeLine="45" fill="#F1F1F1" height="32" id="Tokenizer" rx="3.5" ry="3.5" style="stroke:#181818;stroke-width:0.5;" width="100.3184" x="506.84" y="60"/><ellipse cx="521.84" cy="76" fill="#B4A7E5" rx="11" ry="11" style="stroke:#181818;stroke-width:1;"/><path d="M517.7619,71.7656 L517.7619,69.6094 L525.1525,69.6094 L525.1525,71.7656 L522.6838,71.7656 L522.6838,79.8438 L525.1525,79.8438 L525.1525,82 L517.7619,82 L517.7619,79.8438 L520.2306,79.8438 L520.2306,71.7656 L517.7619,71.7656 Z " fill="#000000"/><text fill="#000000" font-family="sans-serif" font-size="14" font-style="italic" lengthAdjust="spacing" textLength="68.3184" x="535.84" y="80.8467">Tokenizer</text></g><!--class DefaultInputOutputEngine--><g id="elem_DefaultInputOutputEngine"><rect codeLine="47" fill="#F1F1F1" height="32" id="DefaultInputOutputEngine" rx="3.5" ry="3.5" style="stroke:#181818;stroke-width:0.5;" width="216.0166" x="736.99" y="209"/><ellipse cx="751.99" cy="225" fill="#ADD1B2" rx="11" ry="11" style="stroke:#181818;stroke-width:1;"/><path d="M754.9588,230.6406 Q754.3806,230.9375 753.74,231.0781 Q753.0994,231.2344 752.3963,231.2344 Q749.8963,231.2344 748.5681,229.5938 Q747.2556,227.9375 747.2556,224.8125 Q747.2556,221.6875 748.5681,220.0313 Q749.8963,218.375 752.3963,218.375 Q753.0994,218.375 753.74,218.5313 Q754.3963,218.6875 754.9588,218.9844 L754.9588,221.7031 Q754.3338,221.125 753.74,220.8594 Q753.1463,220.5781 752.5213,220.5781 Q751.1775,220.5781 750.49,221.6563 Q749.8025,222.7188 749.8025,224.8125 Q749.8025,226.9063 750.49,227.9844 Q751.1775,229.0469 752.5213,229.0469 Q753.1463,229.0469 753.74,228.7813 Q754.3338,228.5 754.9588,227.9219 L754.9588,230.6406 Z " fill="#000000"/><text fill="#000000" font-family="sans-serif" font-size="14" lengthAdjust="spacing" textLength="184.0166" x="765.99" y="229.8467">DefaultInputOutputEngine</text></g><!--class DefaultTokenizer--><g id="elem_DefaultTokenizer"><rect codeLine="49" fill="#F1F1F1" height="32" id="DefaultTokenizer" rx="3.5" ry="3.5" style="stroke:#181818;stroke-width:0.5;" width="151.4717" x="481.26" y="209"/><ellipse cx="496.26" cy="225" fill="#ADD1B2" rx="11" ry="11" style="stroke:#181818;stroke-width:1;"/><path d="M499.2288,230.6406 Q498.6506,230.9375 498.01,231.0781 Q497.3694,231.2344 496.6663,231.2344 Q494.1663,231.2344 492.8381,229.5938 Q491.5256,227.9375 491.5256,224.8125 Q491.5256,221.6875 492.8381,220.0313 Q494.1663,218.375 496.6663,218.375 Q497.3694,218.375 498.01,218.5313 Q498.6663,218.6875 499.2288,218.9844 L499.2288,221.7031 Q498.6038,221.125 498.01,220.8594 Q497.4163,220.5781 496.7913,220.5781 Q495.4475,220.5781 494.76,221.6563 Q494.0725,222.7188 494.0725,224.8125 Q494.0725,226.9063 494.76,227.9844 Q495.4475,229.0469 496.7913,229.0469 Q497.4163,229.0469 498.01,228.7813 Q498.6038,228.5 499.2288,227.9219 L499.2288,230.6406 Z " fill="#000000"/><text fill="#000000" font-family="sans-serif" font-size="14" lengthAdjust="spacing" textLength="119.4717" x="510.26" y="229.8467">DefaultTokenizer</text></g><!--class QueryTokenizerIterator--><g id="elem_QueryTokenizerIterator"><rect codeLine="51" fill="#F1F1F1" height="32" id="QueryTokenizerIterator" rx="3.5" ry="3.5" style="stroke:#181818;stroke-width:0.5;" width="195.2422" x="481.38" y="360"/><ellipse cx="496.38" cy="376" fill="#ADD1B2" rx="11" ry="11" style="stroke:#181818;stroke-width:1;"/><path d="M499.3488,381.6406 Q498.7706,381.9375 498.13,382.0781 Q497.4894,382.2344 496.7863,382.2344 Q494.2863,382.2344 492.9581,380.5938 Q491.6456,378.9375 491.6456,375.8125 Q491.6456,372.6875 492.9581,371.0313 Q494.2863,369.375 496.7863,369.375 Q497.4894,369.375 498.13,369.5313 Q498.7863,369.6875 499.3488,369.9844 L499.3488,372.7031 Q498.7238,372.125 498.13,371.8594 Q497.5363,371.5781 496.9113,371.5781 Q495.5675,371.5781 494.88,372.6563 Q494.1925,373.7188 494.1925,375.8125 Q494.1925,377.9063 494.88,378.9844 Q495.5675,380.0469 496.9113,380.0469 Q497.5363,380.0469 498.13,379.7813 Q498.7238,379.5 499.3488,378.9219 L499.3488,381.6406 Z " fill="#000000"/><text fill="#000000" font-family="sans-serif" font-size="14" lengthAdjust="spacing" textLength="163.2422" x="510.38" y="380.8467">QueryTokenizerIterator</text></g><!--class QueryRequestIterator--><g id="elem_QueryRequestIterator"><rect codeLine="53" fill="#F1F1F1" height="32" id="QueryRequestIterator" rx="3.5" ry="3.5" style="stroke:#181818;stroke-width:0.5;" width="184.4209" x="711.79" y="360"/><ellipse cx="726.79" cy="376" fill="#ADD1B2" rx="11" ry="11" style="stroke:#181818;stroke-width:1;"/><path d="M729.7588,381.6406 Q729.1806,381.9375 728.54,382.0781 Q727.8994,382.2344 727.1963,382.2344 Q724.6963,382.2344 723.3681,380.5938 Q722.0556,378.9375 722.0556,375.8125 Q722.0556,372.6875 723.3681,371.0313 Q724.6963,369.375 727.1963,369.375 Q727.8994,369.375 728.54,369.5313 Q729.1963,369.6875 729.7588,369.9844 L729.7588,372.7031 Q729.1338,372.125 728.54,371.8594 Q727.9463,371.5781 727.3213,371.5781 Q725.9775,371.5781 725.29,372.6563 Q724.6025,373.7188 724.6025,375.8125 Q724.6025,377.9063 725.29,378.9844 Q725.9775,380.0469 727.3213,380.0469 Q727.9463,380.0469 728.54,379.7813 Q729.1338,379.5 729.7588,378.9219 L729.7588,381.6406 Z " fill="#000000"/><text fill="#000000" font-family="sans-serif" font-size="14" lengthAdjust="spacing" textLength="152.4209" x="740.79" y="380.8467">QueryRequestIterator</text></g><!--class QueryPathDFA--><g id="elem_QueryPathDFA"><rect codeLine="62" fill="#F1F1F1" height="32" id="QueryPathDFA" rx="3.5" ry="3.5" style="stroke:#181818;stroke-width:0.5;" width="134.3408" x="1092.83" y="209"/><ellipse cx="1107.83" cy="225" fill="#ADD1B2" rx="11" ry="11" style="stroke:#181818;stroke-width:1;"/><path d="M1110.7988,230.6406 Q1110.2206,230.9375 1109.58,231.0781 Q1108.9394,231.2344 1108.2363,231.2344 Q1105.7363,231.2344 1104.4081,229.5938 Q1103.0956,227.9375 1103.0956,224.8125 Q1103.0956,221.6875 1104.4081,220.0313 Q1105.7363,218.375 1108.2363,218.375 Q1108.9394,218.375 1109.58,218.5313 Q1110.2363,218.6875 1110.7988,218.9844 L1110.7988,221.7031 Q1110.1738,221.125 1109.58,220.8594 Q1108.9863,220.5781 1108.3613,220.5781 Q1107.0175,220.5781 1106.33,221.6563 Q1105.6425,222.7188 1105.6425,224.8125 Q1105.6425,226.9063 1106.33,227.9844 Q1107.0175,229.0469 1108.3613,229.0469 Q1108.9863,229.0469 1109.58,228.7813 Q1110.1738,228.5 1110.7988,227.9219 L1110.7988,230.6406 Z " fill="#000000"/><text fill="#000000" font-family="sans-serif" font-size="14" lengthAdjust="spacing" textLength="102.3408" x="1121.83" y="229.8467">QueryPathDFA</text></g><!--class QueryPathDFABuilder--><g id="elem_QueryPathDFABuilder"><rect codeLine="63" fill="#F1F1F1" height="32" id="QueryPathDFABuilder" rx="3.5" ry="3.5" style="stroke:#181818;stroke-width:0.5;" width="183.8535" x="1325.07" y="209"/><ellipse cx="1340.07" cy="225" fill="#ADD1B2" rx="11" ry="11" style="stroke:#181818;stroke-width:1;"/><path d="M1343.0388,230.6406 Q1342.4606,230.9375 1341.82,231.0781 Q1341.1794,231.2344 1340.4763,231.2344 Q1337.9763,231.2344 1336.6481,229.5938 Q1335.3356,227.9375 1335.3356,224.8125 Q1335.3356,221.6875 1336.6481,220.0313 Q1337.9763,218.375 1340.4763,218.375 Q1341.1794,218.375 1341.82,218.5313 Q1342.4763,218.6875 1343.0388,218.9844 L1343.0388,221.7031 Q1342.4138,221.125 1341.82,220.8594 Q1341.2263,220.5781 1340.6013,220.5781 Q1339.2575,220.5781 1338.57,221.6563 Q1337.8825,222.7188 1337.8825,224.8125 Q1337.8825,226.9063 1338.57,227.9844 Q1339.2575,229.0469 1340.6013,229.0469 Q1341.2263,229.0469 1341.82,228.7813 Q1342.4138,228.5 1343.0388,227.9219 L1343.0388,230.6406 Z " fill="#000000"/><text fill="#000000" font-family="sans-serif" font-size="14" lengthAdjust="spacing" textLength="151.8535" x="1354.07" y="229.8467">QueryPathDFABuilder</text></g><!--class BitSet--><g id="elem_BitSet"><rect codeLine="71" fill="#F1F1F1" height="32" id="BitSet" rx="3.5" ry="3.5" style="stroke:#181818;stroke-width:0.5;" width="73.9727" x="351.01" y="360"/><ellipse cx="366.01" cy="376" fill="#B4A7E5" rx="11" ry="11" style="stroke:#181818;stroke-width:1;"/><path d="M361.9319,371.7656 L361.9319,369.6094 L369.3225,369.6094 L369.3225,371.7656 L366.8538,371.7656 L366.8538,379.8438 L369.3225,379.8438 L369.3225,382 L361.9319,382 L361.9319,379.8438 L364.4006,379.8438 L364.4006,371.7656 L361.9319,371.7656 Z " fill="#000000"/><text fill="#000000" font-family="sans-serif" font-size="14" font-style="italic" lengthAdjust="spacing" textLength="41.9727" x="380.01" y="380.8467">BitSet</text></g><!--class lib--><g id="elem_lib"><rect codeLine="76" fill="#F1F1F1" height="32" id="lib" rx="3.5" ry="3.5" style="stroke:#181818;stroke-width:0.5;" width="48.666" x="984.67" y="360"/><ellipse cx="999.67" cy="376" fill="#ADD1B2" rx="11" ry="11" style="stroke:#181818;stroke-width:1;"/><path d="M1002.6388,381.6406 Q1002.0606,381.9375 1001.42,382.0781 Q1000.7794,382.2344 1000.0763,382.2344 Q997.5763,382.2344 996.2481,380.5938 Q994.9356,378.9375 994.9356,375.8125 Q994.9356,372.6875 996.2481,371.0313 Q997.5763,369.375 1000.0763,369.375 Q1000.7794,369.375 1001.42,369.5313 Q1002.0763,369.6875 1002.6388,369.9844 L1002.6388,372.7031 Q1002.0138,372.125 1001.42,371.8594 Q1000.8263,371.5781 1000.2013,371.5781 Q998.8575,371.5781 998.17,372.6563 Q997.4825,373.7188 997.4825,375.8125 Q997.4825,377.9063 998.17,378.9844 Q998.8575,380.0469 1000.2013,380.0469 Q1000.8263,380.0469 1001.42,379.7813 Q1002.0138,379.5 1002.6388,378.9219 L1002.6388,381.6406 Z " fill="#000000"/><text fill="#000000" font-family="sans-serif" font-size="14" lengthAdjust="spacing" textLength="16.666" x="1013.67" y="380.8467">lib</text></g><!--class main--><g id="elem_main"><rect codeLine="78" fill="#F1F1F1" height="32" id="main" rx="3.5" ry="3.5" style="stroke:#181818;stroke-width:0.5;" width="66.9795" x="1111.51" y="360"/><ellipse cx="1126.51" cy="376" fill="#ADD1B2" rx="11" ry="11" style="stroke:#181818;stroke-width:1;"/><path d="M1129.4788,381.6406 Q1128.9006,381.9375 1128.26,382.0781 Q1127.6194,382.2344 1126.9163,382.2344 Q1124.4163,382.2344 1123.0881,380.5938 Q1121.7756,378.9375 1121.7756,375.8125 Q1121.7756,372.6875 1123.0881,371.0313 Q1124.4163,369.375 1126.9163,369.375 Q1127.6194,369.375 1128.26,369.5313 Q1128.9163,369.6875 1129.4788,369.9844 L1129.4788,372.7031 Q1128.8538,372.125 1128.26,371.8594 Q1127.6663,371.5781 1127.0413,371.5781 Q1125.6975,371.5781 1125.01,372.6563 Q1124.3225,373.7188 1124.3225,375.8125 Q1124.3225,377.9063 1125.01,378.9844 Q1125.6975,380.0469 1127.0413,380.0469 Q1127.6663,380.0469 1128.26,379.7813 Q1128.8538,379.5 1129.4788,378.9219 L1129.4788,381.6406 Z " fill="#000000"/><text fill="#000000" font-family="sans-serif" font-size="14" lengthAdjust="spacing" textLength="34.9795" x="1140.51" y="380.8467">main</text></g><g id="elem_n1"><path d="M985.31,66.93 L985.31,85.0628 A3.5,3.5 0 0 0 988.81,88.5628 L1297.1953,88.5628 A3.5,3.5 0 0 0 1300.6953,85.0628 L1300.6953,73.43 L1290.6953,63.43 L988.81,63.43 A3.5,3.5 0 0 0 985.31,66.93 " fill="#E5E5E5" style="stroke:#191919;stroke-width:1.5;"/><path d="M1290.6953,63.43 L1290.6953,71.68 A1.75,1.75 0 0 0 1292.4453,73.43 L1300.6953,73.43 L1290.6953,63.43 " fill="#E5E5E5" style="stroke:#191919;stroke-width:1;"/><text fill="#191919" font-family="sans-serif" font-size="13" lengthAdjust="spacing" textLength="294.3853" x="991.31" y="80.4969">left out quite a lot of helper structs and traits</text></g><!--link GraphBuilder to Graph--><g id="link_GraphBuilder_Graph"><path codeLine="11" d="M779.47,745 C740.35,745 697.22,745 663.91,745 " fill="transparent" id="GraphBuilder-to-Graph" style="stroke:#191919;stroke-width:1;"/><polygon fill="#191919" points="657.91,745,666.91,749,662.91,745,666.91,741,657.91,745" style="stroke:#191919;stroke-width:1;"/><polygon fill="#000000" points="687.12,733.5664,696.1651,736.5053,696.1651,730.6275,687.12,733.5664" style="stroke:#000000;stroke-width:1;"/><text fill="#000000" font-family="sans-serif" font-size="13" lengthAdjust="spacing" textLength="48.3247" x="701.12" y="738.0669">creates</text></g><!--reverse link Graph to DefaultGraph--><g id="link_Graph_DefaultGraph"><path d="M613.8085,779.1328 C610.6585,795.9628 608.97,805.05 605.84,821.79 " fill="transparent" id="Graph-backto-DefaultGraph" style="stroke:#191919;stroke-width:1;stroke-dasharray:7.0,7.0;"/><polygon fill="transparent" points="617.12,761.44,607.9109,778.0289,619.7061,780.2366,617.12,761.44" style="stroke:#191919;stroke-width:1;"/></g><!--reverse link GraphBuilder to DefaultGraphBuilder--><g id="link_GraphBuilder_DefaultGraphBuilder"><path d="M845.2968,779.3531 C846.9568,796.1831 847.84,805.05 849.5,821.79 " fill="transparent" id="GraphBuilder-backto-DefaultGraphBuilder" style="stroke:#191919;stroke-width:1;stroke-dasharray:7.0,7.0;"/><polygon fill="transparent" points="843.53,761.44,839.3258,779.942,851.2679,778.7641,843.53,761.44" style="stroke:#191919;stroke-width:1;"/></g><!--link DefaultGraphBuilder to DefaultGraph--><g id="link_DefaultGraphBuilder_DefaultGraph"><path codeLine="19" d="M762.84,838 C731.05,838 701.82,838 672.54,838 " fill="transparent" id="DefaultGraphBuilder-to-DefaultGraph" style="stroke:#191919;stroke-width:1;"/><polygon fill="#191919" points="666.54,838,675.54,842,671.54,838,675.54,834,666.54,838" style="stroke:#191919;stroke-width:1;"/><polygon fill="#000000" points="683.12,826.5664,692.1651,829.5053,692.1651,823.6275,683.12,826.5664" style="stroke:#000000;stroke-width:1;"/><text fill="#000000" font-family="sans-serif" font-size="13" lengthAdjust="spacing" textLength="48.3247" x="697.12" y="831.0669">creates</text></g><!--link QueryHandler to Graph--><g id="link_QueryHandler_Graph"><path codeLine="32" d="M694.9,543.5 C760.36,561.71 843.84,596.67 813,652 C781.74,708.09 710.4918,729.3091 663.7518,737.8691 " fill="transparent" id="QueryHandler-to-Graph" style="stroke:#191919;stroke-width:1;"/><polygon fill="#191919" points="657.85,738.95,667.4233,741.2633,662.7682,738.0493,665.9822,733.3941,657.85,738.95" style="stroke:#191919;stroke-width:1;"/><polygon fill="#000000" points="823.7988,641.0034,828.132,632.5373,822.3282,631.6072,823.7988,641.0034" style="stroke:#000000;stroke-width:1;"/><text fill="#000000" font-family="sans-serif" font-size="13" lengthAdjust="spacing" textLength="58.5571" x="833.59" y="640.5669">works on</text></g><!--link BfsSolver to Graph--><g id="link_BfsSolver_Graph"><path codeLine="33" d="M674.83,652.33 C662.66,672.67 644.3899,703.2208 632.2299,723.5508 " fill="transparent" id="BfsSolver-to-Graph" style="stroke:#191919;stroke-width:1;"/><polygon fill="#191919" points="629.15,728.7,637.2026,723.0295,631.7166,724.409,630.337,718.9229,629.15,728.7" style="stroke:#191919;stroke-width:1;"/><polygon fill="#000000" points="658.2634,694.8574,665.4286,688.6035,660.3843,685.5863,658.2634,694.8574" style="stroke:#000000;stroke-width:1;"/><text fill="#000000" font-family="sans-serif" font-size="13" lengthAdjust="spacing" textLength="58.5571" x="669.83" y="695.0669">works on</text></g><!--link DfsSolver to Graph--><g id="link_DfsSolver_Graph"><path codeLine="34" d="M204.15,652.44 C308.51,675.42 495.1904,716.5195 576.4204,734.4095 " fill="transparent" id="DfsSolver-to-Graph" style="stroke:#191919;stroke-width:1;"/><polygon fill="#191919" points="582.28,735.7,574.351,729.8579,577.397,734.6246,572.6303,737.6706,582.28,735.7" style="stroke:#191919;stroke-width:1;"/><polygon fill="#000000" points="415.983,691.6416,407.7815,686.8264,406.5176,692.5667,415.983,691.6416" style="stroke:#000000;stroke-width:1;"/><text fill="#000000" font-family="sans-serif" font-size="13" lengthAdjust="spacing" textLength="58.5571" x="420.1" y="695.0669">works on</text></g><!--link SingleNodeQuerySolver to Graph--><g id="link_SingleNodeQuerySolver_Graph"><path codeLine="35" d="M439.23,652.33 C479.23,672.61 543.9885,705.4569 584.1285,725.8069 " fill="transparent" id="SingleNodeQuerySolver-to-Graph" style="stroke:#191919;stroke-width:1;"/><polygon fill="#191919" points="589.48,728.52,583.2614,720.8826,585.0204,726.2591,579.6439,728.018,589.48,728.52" style="stroke:#191919;stroke-width:1;"/><polygon fill="#000000" points="536.5894,692.8277,529.8514,686.1158,527.1931,691.3581,536.5894,692.8277" style="stroke:#000000;stroke-width:1;"/><text fill="#000000" font-family="sans-serif" font-size="13" lengthAdjust="spacing" textLength="58.5571" x="541.13" y="695.0669">works on</text></g><!--link QueryHandler to BfsSolver--><g id="link_QueryHandler_BfsSolver"><path codeLine="37" d="M633.45,543.33 C644.67,563.67 661.4528,594.1158 672.6628,614.4458 " fill="transparent" id="QueryHandler-to-BfsSolver" style="stroke:#191919;stroke-width:1;"/><polygon fill="#191919" points="675.56,619.7,674.717,609.8873,673.1457,615.3215,667.7115,613.7502,675.56,619.7" style="stroke:#191919;stroke-width:1;"/><polygon fill="#000000" points="665.4443,585.9449,663.6504,576.605,658.5032,579.4432,665.4443,585.9449" style="stroke:#000000;stroke-width:1;"/><text fill="#000000" font-family="sans-serif" font-size="13" lengthAdjust="spacing" textLength="29.1104" x="672.03" y="586.0669">calls</text></g><!--link QueryHandler to DfsSolver--><g id="link_QueryHandler_DfsSolver"><path codeLine="38" d="M554.13,543.44 C460.91,563.76 303.9124,597.9725 210.7124,618.2825 " fill="transparent" id="QueryHandler-to-DfsSolver" style="stroke:#191919;stroke-width:1;"/><polygon fill="#191919" points="204.85,619.56,214.4953,621.552,209.7353,618.4954,212.7919,613.7354,204.85,619.56" style="stroke:#191919;stroke-width:1;"/><polygon fill="#000000" points="409.0147,582.6311,418.4781,583.5766,417.2265,577.8335,409.0147,582.6311" style="stroke:#000000;stroke-width:1;"/><text fill="#000000" font-family="sans-serif" font-size="13" lengthAdjust="spacing" textLength="29.1104" x="422.9" y="586.0669">calls</text></g><!--link QueryHandler to SingleNodeQuerySolver--><g id="link_QueryHandler_SingleNodeQuerySolver"><path codeLine="39" d="M598.15,543.42 C575.25,556.37 541.33,575.09 511,590 C489.63,600.5 470.7641,608.9348 451.2041,617.3248 " fill="transparent" id="QueryHandler-to-SingleNodeQuerySolver" style="stroke:#191919;stroke-width:1;"/><polygon fill="#191919" points="445.69,619.69,455.538,619.8183,450.2851,617.719,452.3844,612.4661,445.69,619.69" style="stroke:#191919;stroke-width:1;"/><polygon fill="#000000" points="543.2631,583.813,552.6643,582.3745,550.0233,577.1233,543.2631,583.813" style="stroke:#000000;stroke-width:1;"/><text fill="#000000" font-family="sans-serif" font-size="13" lengthAdjust="spacing" textLength="29.1104" x="556.73" y="586.0669">calls</text></g><!--reverse link InputOutputEngine to DefaultInputOutputEngine--><g id="link_InputOutputEngine_DefaultInputOutputEngine"><path d="M845,110.45 C845,138.76 845,180.6 845,208.75 " fill="transparent" id="InputOutputEngine-backto-DefaultInputOutputEngine" style="stroke:#191919;stroke-width:1;stroke-dasharray:7.0,7.0;"/><polygon fill="transparent" points="845,92.45,839,110.45,851,110.45,845,92.45" style="stroke:#191919;stroke-width:1;"/></g><!--reverse link Tokenizer to DefaultTokenizer--><g id="link_Tokenizer_DefaultTokenizer"><path d="M557,110.45 C557,138.76 557,180.6 557,208.75 " fill="transparent" id="Tokenizer-backto-DefaultTokenizer" style="stroke:#191919;stroke-width:1;stroke-dasharray:7.0,7.0;"/><polygon fill="transparent" points="557,92.45,551,110.45,563,110.45,557,92.45" style="stroke:#191919;stroke-width:1;"/></g><!--link DefaultTokenizer to QueryTokenizerIterator--><g id="link_DefaultTokenizer_QueryTokenizerIterator"><path codeLine="55" d="M559.27,241.38 C563.51,270.09 571.6943,325.5142 575.8943,353.9842 " fill="transparent" id="DefaultTokenizer-to-QueryTokenizerIterator" style="stroke:#191919;stroke-width:1;"/><polygon fill="#191919" points="576.77,359.92,579.4137,350.4326,576.0403,354.9735,571.4993,351.6001,576.77,359.92" style="stroke:#191919;stroke-width:1;"/><polygon fill="#000000" points="571.7603,286.5128,573.3466,277.1355,567.5318,277.9939,571.7603,286.5128" style="stroke:#000000;stroke-width:1;"/><text fill="#000000" font-family="sans-serif" font-size="13" lengthAdjust="spacing" textLength="47.0361" x="580.03" y="286.0669">returns</text></g><!--link DefaultInputOutputEngine to QueryRequestIterator--><g id="link_DefaultInputOutputEngine_QueryRequestIterator"><path codeLine="56" d="M804.87,241.46 C791.3,248.84 777.66,259.15 770,273 C754.09,301.74 772.5472,334.3671 787.8672,354.9471 " fill="transparent" id="DefaultInputOutputEngine-to-QueryRequestIterator" style="stroke:#191919;stroke-width:1;"/><polygon fill="#191919" points="791.45,359.76,789.2844,350.1522,788.4644,355.7493,782.8673,354.9292,791.45,359.76" style="stroke:#191919;stroke-width:1;"/><polygon fill="#000000" points="774.2592,286.5112,778.5058,278.0014,772.6929,277.1305,774.2592,286.5112" style="stroke:#000000;stroke-width:1;"/><text fill="#000000" font-family="sans-serif" font-size="13" lengthAdjust="spacing" textLength="47.0361" x="784" y="286.0669">returns</text></g><!--reverse link DefaultTokenizer to DefaultInputOutputEngine--><g id="link_DefaultTokenizer_DefaultInputOutputEngine"><path codeLine="58" d="M639.05,225 C670.71,225 702.06,225 736.52,225 " fill="transparent" id="DefaultTokenizer-backto-DefaultInputOutputEngine" style="stroke:#191919;stroke-width:1;"/><polygon fill="#191919" points="633.05,225,642.05,229,638.05,225,642.05,221,633.05,225" style="stroke:#191919;stroke-width:1;"/><polygon fill="#000000" points="649.86,213.5664,658.9051,216.5053,658.9051,210.6275,649.86,213.5664" style="stroke:#000000;stroke-width:1;"/><text fill="#000000" font-family="sans-serif" font-size="13" lengthAdjust="spacing" textLength="55.6626" x="663.86" y="218.0669">relies on</text></g><!--reverse link QueryPathDFA to QueryPathDFABuilder--><g id="link_QueryPathDFA_QueryPathDFABuilder"><path codeLine="67" d="M1233.52,225 C1263.27,225 1292.69,225 1324.81,225 " fill="transparent" id="QueryPathDFA-backto-QueryPathDFABuilder" style="stroke:#191919;stroke-width:1;"/><polygon fill="#191919" points="1227.52,225,1236.52,229,1232.52,225,1236.52,221,1227.52,225" style="stroke:#191919;stroke-width:1;"/><polygon fill="#000000" points="1244.62,213.5664,1253.6651,216.5053,1253.6651,210.6275,1244.62,213.5664" style="stroke:#000000;stroke-width:1;"/><text fill="#000000" font-family="sans-serif" font-size="13" lengthAdjust="spacing" textLength="48.3247" x="1258.62" y="218.0669">creates</text></g><!--reverse link lib to main--><g id="link_lib_main"><path codeLine="80" d="M1039.63,376 C1061.29,376 1087.03,376 1111.09,376 " fill="transparent" id="lib-backto-main" style="stroke:#191919;stroke-width:1;"/><polygon fill="#191919" points="1033.63,376,1042.63,380,1038.63,376,1042.63,372,1033.63,376" style="stroke:#191919;stroke-width:1;"/><polygon fill="#000000" points="1050.42,364.5664,1059.4651,367.5053,1059.4651,361.6275,1050.42,364.5664" style="stroke:#000000;stroke-width:1;"/><text fill="#000000" font-family="sans-serif" font-size="13" lengthAdjust="spacing" textLength="29.1104" x="1064.42" y="369.0669">calls</text></g><!--reverse link DefaultInputOutputEngine to lib--><g id="link_DefaultInputOutputEngine_lib"><path codeLine="82" d="M848.0406,247.3701 C850.8206,262.4101 856.37,278.68 872,290 C889.52,302.69 950.99,286.02 969,298 C990.32,312.18 1000.97,341.49 1005.71,359.57 " fill="transparent" id="DefaultInputOutputEngine-backto-lib" style="stroke:#191919;stroke-width:1;"/><polygon fill="#191919" points="846.95,241.47,844.6525,251.0471,847.8588,246.3867,852.5192,249.593,846.95,241.47" style="stroke:#191919;stroke-width:1;"/><polygon fill="#000000" points="872.9262,278.6674,878.5918,286.3063,881.9998,281.5172,872.9262,278.6674" style="stroke:#000000;stroke-width:1;"/><text fill="#000000" font-family="sans-serif" font-size="13" lengthAdjust="spacing" textLength="148.897" x="886" y="286.0669">fetches parsed queries</text></g><!--reverse link DefaultInputOutputEngine to lib--><g id="link_DefaultInputOutputEngine_lib"><path codeLine="84" d="M959.3688,241.4698 C997.3188,248.8798 1027.48,258.36 1039,273 C1059.31,298.82 1036.88,338.05 1021.32,359.55 " fill="transparent" id="DefaultInputOutputEngine-backto-lib-1" style="stroke:#191919;stroke-width:1;"/><polygon fill="#191919" points="953.48,240.32,961.5466,245.9706,958.3873,241.2782,963.0797,238.1189,953.48,240.32" style="stroke:#191919;stroke-width:1;"/><polygon fill="#000000" points="1049.157,277.1388,1050.7568,286.5138,1055.9618,283.783,1049.157,277.1388" style="stroke:#000000;stroke-width:1;"/><text fill="#000000" font-family="sans-serif" font-size="13" lengthAdjust="spacing" textLength="122.0972" x="1060.48" y="286.0669">ask to print results</text></g><!--link lib to QueryHandler--><g id="link_lib_QueryHandler"><path codeLine="83" d="M997.89,392.43 C990.72,401.05 980.59,411.03 969,416 C926.5,434.25 804.59,408.53 761,424 C709.82,442.16 666.1136,482.5898 643.2436,506.3198 " fill="transparent" id="lib-to-QueryHandler" style="stroke:#191919;stroke-width:1;"/><polygon fill="#191919" points="639.08,510.64,648.2056,506.9355,642.5497,507.0398,642.4453,501.3839,639.08,510.64" style="stroke:#191919;stroke-width:1;"/><polygon fill="#000000" points="761.2395,434.0952,770.75,434.1278,768.9528,428.5314,761.2395,434.0952" style="stroke:#000000;stroke-width:1;"/><text fill="#000000" font-family="sans-serif" font-size="13" lengthAdjust="spacing" textLength="207.3208" x="775" y="437.0669">relays the queries for execution</text></g><!--link lib to DefaultGraphBuilder--><g id="link_lib_DefaultGraphBuilder"><path codeLine="85" d="M1009,392.23 C1009,419.2 1009,477.11 1009,526 C1009,526 1009,526 1009,746 C1009,786.2 975.8185,807.0625 936.6385,819.7425 " fill="transparent" id="lib-to-DefaultGraphBuilder" style="stroke:#191919;stroke-width:1;"/><polygon fill="#191919" points="930.93,821.59,940.7244,822.6245,935.6871,820.0504,938.2611,815.0131,930.93,821.59" style="stroke:#191919;stroke-width:1;"/><polygon fill="#000000" points="1013.1656,640.9963,1017.5728,632.5685,1011.7774,631.5876,1013.1656,640.9963" style="stroke:#000000;stroke-width:1;"/><text fill="#000000" font-family="sans-serif" font-size="13" lengthAdjust="spacing" textLength="52.0063" x="1023" y="640.5669">initiates</text></g><!--reverse link BitSet to QueryHandler--><g id="link_BitSet_QueryHandler"><path codeLine="87" d="M417.5493,395.5739 C463.0793,424.2039 555.23,482.14 600.66,510.7 " fill="transparent" id="BitSet-backto-QueryHandler" style="stroke:#191919;stroke-width:1;"/><polygon fill="#191919" points="412.47,392.38,417.9596,400.5571,416.7027,395.0416,422.2182,393.7847,412.47,392.38" style="stroke:#191919;stroke-width:1;"/><polygon fill="#000000" points="486.0371,429.9051,492.1302,437.2075,495.2588,432.2314,486.0371,429.9051" style="stroke:#000000;stroke-width:1;"/><text fill="#000000" font-family="sans-serif" font-size="13" lengthAdjust="spacing" textLength="29.7832" x="499.27" y="437.0669">uses</text></g><!--reverse link BitSet to BfsSolver--><g id="link_BitSet_BfsSolver"><path codeLine="88" d="M383.1787,398.2944 C375.0687,437.3044 361.19,534.83 414,590 C419.78,596.04 500.82,609.04 572.62,619.52 " fill="transparent" id="BitSet-backto-BfsSolver" style="stroke:#191919;stroke-width:1;"/><polygon fill="#191919" points="384.4,392.42,378.6518,400.4174,383.3823,397.3153,386.4844,402.0458,384.4,392.42" style="stroke:#191919;stroke-width:1;"/><polygon fill="#000000" points="387.7178,523.2686,391.3688,532.0505,395.8334,528.2273,387.7178,523.2686" style="stroke:#000000;stroke-width:1;"/><text fill="#000000" font-family="sans-serif" font-size="13" lengthAdjust="spacing" textLength="29.7832" x="399.97" y="531.5669">uses</text></g><!--reverse link BitSet to DfsSolver--><g id="link_BitSet_DfsSolver"><path codeLine="89" d="M364.3853,396.2525 C347.2053,410.4525 326.07,428.53 305,449 C243.02,509.22 175.17,586.9 147.19,619.51 " fill="transparent" id="BitSet-backto-DfsSolver" style="stroke:#191919;stroke-width:1;"/><polygon fill="#191919" points="369.01,392.43,359.5245,395.0807,365.1561,395.6155,364.6213,401.247,369.01,392.43" style="stroke:#191919;stroke-width:1;"/><polygon fill="#000000" points="313.4865,523.4826,305.0728,527.9165,309.2859,532.0151,313.4865,523.4826" style="stroke:#000000;stroke-width:1;"/><text fill="#000000" font-family="sans-serif" font-size="13" lengthAdjust="spacing" textLength="29.7832" x="319" y="531.5669">uses</text></g><!--link DefaultInputOutputEngine to QueryPathDFA--><g id="link_DefaultInputOutputEngine_QueryPathDFA"><path codeLine="91" d="M953.41,225 C999.68,225 1046.23,225 1086.75,225 " fill="transparent" id="DefaultInputOutputEngine-to-QueryPathDFA" style="stroke:#191919;stroke-width:1;"/><polygon fill="#191919" points="1092.75,225,1083.75,221,1087.75,225,1083.75,229,1092.75,225" style="stroke:#191919;stroke-width:1;"/><polygon fill="#000000" points="980.42,236.5664,971.3749,233.6275,971.3749,239.5053,980.42,236.5664" style="stroke:#000000;stroke-width:1;"/><text fill="#000000" font-family="sans-serif" font-size="13" lengthAdjust="spacing" textLength="90.397" x="984.42" y="241.0669">use per query</text></g><!--link DefaultInputOutputEngine to QueryPathDFABuilder--><g id="link_DefaultInputOutputEngine_QueryPathDFABuilder"><path codeLine="92" d="M878.38,208.53 C953.46,173.73 1140.92,99.45 1292,144.08 C1334.64,156.68 1371.8751,184.9512 1394.6951,204.7212 " fill="transparent" id="DefaultInputOutputEngine-to-QueryPathDFABuilder" style="stroke:#191919;stroke-width:1;"/><polygon fill="#191919" points="1399.23,208.65,1395.0469,199.7336,1395.451,205.376,1389.8085,205.7801,1399.23,208.65" style="stroke:#191919;stroke-width:1;"/><polygon fill="#000000" points="1183.9999,130.5295,1174.9333,127.6574,1174.9767,133.5351,1183.9999,130.5295" style="stroke:#000000;stroke-width:1;"/><text fill="#000000" font-family="sans-serif" font-size="13" lengthAdjust="spacing" textLength="103.7461" x="1188" y="135.0669">setup per query</text></g><!--SRC=[ZLLDazCm33t7lqASW87Em3N3xCoMGkc5htBVSHEbzTHnihO2b9t-TsHdcpXDkjjBcqZlIK-APB-W7PO8fRHEkBqojRIoX8zQEdTBPDMc8LnbbLchVmZln4xb25ZMT80IomqoIzGosyijmjRAUlSW4cK8RI4pXAMtZ0ppHkaSxODucIHlu45k75cPqH4stl7gTGfBaHo5I68qpEpifkMda5cKX0vk69HvgR30GZQQWXzKMMikof1xL325EiKz1m_LTP9YQgjkAbWG6Ji6MaKdv4U3zl15cboZ_R1CsynlORvEOQveZTHNDY_SkjA_dyKjhiIjbTbg_5hb64ISSJmk5WUplkj_AhjtK1ak9UbKNG8idWDCwhW0dj3K2U0EIwrzVyUWnJMWII4zuTWFE6z7GtTLG_uFpLOP78pxolk_1VUdu1MnzrUrHyDRPC_7SKIBPt8gve3TXOrPuroXjiwyOb6IgZFtJxnlq57a7ENm3PiEbO95Qgm9JRvOMSS_onMpdwBhVhyw1Pwh5RQp0l47k_UPxcf9_bYA2ltEbiNdsodRXVKVqewdYHoIMdcn8rx_I1STQdI3qMctb4s9ZyxGLfbMczDZAPKHml-sQTZL3wdWDvWrVND6hKkXGCfsh8HFU8Tvw8qAmW8tFob_N8tGL7bmmFT3Xoqg2_WNiuPKsCihiagt1wgWjbmhXtIC6kISE4LJNZH5wdHg3XVMPskRbKBZ0Y8wYoQyYoUzulAesT6tP0xK72YCbGzzDRUhpF6KruCWmbI4t2OmxuN6We3F5tOgRmHTyNi1EzIUmlTaat7xk1V0LwOY9v0VVO3_]--></g></svg>