<svg xmlns="http://www.w3.org/2000/svg" xmlns:xlink="http://www.w3.org/1999/xlink" contentStyleType="text/css" data-diagram-type="CLASS" height="375px" preserveAspectRatio="none" style="width:1073px;height:375px;background:#F9F9F9;" version="1.1" viewBox="0 0 1073 375" width="1073px" zoomAndPan="magnify"><defs/><g><rect fill="#F9F9F9" height="375" style="stroke:transparent;stroke-width:1;" width="1073" x="0" y="0"/><!--cluster input_output_engine--><g id="cluster_input_output_engine"><path d="M9.5,6 L170.6484,6 A5.25,5.25 0 0 1 174.1484,9.5 L181.1484,28.2969 L506.5,28.2969 A3.5,3.5 0 0 1 510,31.7969 L510,364.5 A3.5,3.5 0 0 1 506.5,368 L9.5,368 A3.5,3.5 0 0 1 6,364.5 L6,9.5 A3.5,3.5 0 0 1 9.5,6 " fill="transparent" style="stroke:#393939;stroke-width:1;"/><line style="stroke:#393939;stroke-width:1;" x1="6" x2="181.1484" y1="28.2969" y2="28.2969"/><text fill="#000000" font-family="sans-serif" font-size="14" font-weight="bold" lengthAdjust="spacing" textLength="162.1484" x="10" y="20.9951">input_output_engine</text></g><!--cluster query_path--><g id="cluster_query_path"><path d="M621.5,155 L709.1416,155 A5.25,5.25 0 0 1 712.6416,158.5 L719.6416,177.2969 L1062.5,177.2969 A3.5,3.5 0 0 1 1066,180.7969 L1066,253.5 A3.5,3.5 0 0 1 1062.5,257 L621.5,257 A3.5,3.5 0 0 1 618,253.5 L618,158.5 A3.5,3.5 0 0 1 621.5,155 " fill="transparent" style="stroke:#393939;stroke-width:1;"/><line style="stroke:#393939;stroke-width:1;" x1="618" x2="719.6416" y1="177.2969" y2="177.2969"/><text fill="#000000" font-family="sans-serif" font-size="14" font-weight="bold" lengthAdjust="spacing" textLength="88.6416" x="622" y="169.9951">query_path</text></g><!--class InputOutputEngine--><g id="elem_InputOutputEngine"><rect codeLine="6" fill="#F1F1F1" height="32" id="InputOutputEngine" rx="3.5" ry="3.5" style="stroke:#181818;stroke-width:0.5;" width="164.8633" x="303.57" y="60"/><ellipse cx="318.57" cy="76" fill="#B4A7E5" rx="11" ry="11" style="stroke:#181818;stroke-width:1;"/><path d="M314.4919,71.7656 L314.4919,69.6094 L321.8825,69.6094 L321.8825,71.7656 L319.4138,71.7656 L319.4138,79.8438 L321.8825,79.8438 L321.8825,82 L314.4919,82 L314.4919,79.8438 L316.9606,79.8438 L316.9606,71.7656 L314.4919,71.7656 Z " fill="#000000"/><text fill="#000000" font-family="sans-serif" font-size="14" font-style="italic" lengthAdjust="spacing" textLength="132.8633" x="332.57" y="80.8467">InputOutputEngine</text></g><!--class Tokenizer--><g id="elem_Tokenizer"><rect codeLine="8" fill="#F1F1F1" height="32" id="Tokenizer" rx="3.5" ry="3.5" style="stroke:#181818;stroke-width:0.5;" width="100.3184" x="47.84" y="60"/><ellipse cx="62.84" cy="76" fill="#B4A7E5" rx="11" ry="11" style="stroke:#181818;stroke-width:1;"/><path d="M58.7619,71.7656 L58.7619,69.6094 L66.1525,69.6094 L66.1525,71.7656 L63.6838,71.7656 L63.6838,79.8438 L66.1525,79.8438 L66.1525,82 L58.7619,82 L58.7619,79.8438 L61.2306,79.8438 L61.2306,71.7656 L58.7619,71.7656 Z " fill="#000000"/><text fill="#000000" font-family="sans-serif" font-size="14" font-style="italic" lengthAdjust="spacing" textLength="68.3184" x="76.84" y="80.8467">Tokenizer</text></g><!--class DefaultInputOutputEngine--><g id="elem_DefaultInputOutputEngine"><rect codeLine="10" fill="#F1F1F1" height="32" id="DefaultInputOutputEngine" rx="3.5" ry="3.5" style="stroke:#181818;stroke-width:0.5;" width="216.0166" x="277.99" y="209"/><ellipse cx="292.99" cy="225" fill="#ADD1B2" rx="11" ry="11" style="stroke:#181818;stroke-width:1;"/><path d="M295.9588,230.6406 Q295.3806,230.9375 294.74,231.0781 Q294.0994,231.2344 293.3963,231.2344 Q290.8963,231.2344 289.5681,229.5938 Q288.2556,227.9375 288.2556,224.8125 Q288.2556,221.6875 289.5681,220.0313 Q290.8963,218.375 293.3963,218.375 Q294.0994,218.375 294.74,218.5313 Q295.3963,218.6875 295.9588,218.9844 L295.9588,221.7031 Q295.3338,221.125 294.74,220.8594 Q294.1463,220.5781 293.5213,220.5781 Q292.1775,220.5781 291.49,221.6563 Q290.8025,222.7188 290.8025,224.8125 Q290.8025,226.9063 291.49,227.9844 Q292.1775,229.0469 293.5213,229.0469 Q294.1463,229.0469 294.74,228.7813 Q295.3338,228.5 295.9588,227.9219 L295.9588,230.6406 Z " fill="#000000"/><text fill="#000000" font-family="sans-serif" font-size="14" lengthAdjust="spacing" textLength="184.0166" x="306.99" y="229.8467">DefaultInputOutputEngine</text></g><!--class DefaultTokenizer--><g id="elem_DefaultTokenizer"><rect codeLine="12" fill="#F1F1F1" height="32" id="DefaultTokenizer" rx="3.5" ry="3.5" style="stroke:#181818;stroke-width:0.5;" width="151.4717" x="22.26" y="209"/><ellipse cx="37.26" cy="225" fill="#ADD1B2" rx="11" ry="11" style="stroke:#181818;stroke-width:1;"/><path d="M40.2288,230.6406 Q39.6506,230.9375 39.01,231.0781 Q38.3694,231.2344 37.6663,231.2344 Q35.1663,231.2344 33.8381,229.5938 Q32.5256,227.9375 32.5256,224.8125 Q32.5256,221.6875 33.8381,220.0313 Q35.1663,218.375 37.6663,218.375 Q38.3694,218.375 39.01,218.5313 Q39.6663,218.6875 40.2288,218.9844 L40.2288,221.7031 Q39.6038,221.125 39.01,220.8594 Q38.4163,220.5781 37.7913,220.5781 Q36.4475,220.5781 35.76,221.6563 Q35.0725,222.7188 35.0725,224.8125 Q35.0725,226.9063 35.76,227.9844 Q36.4475,229.0469 37.7913,229.0469 Q38.4163,229.0469 39.01,228.7813 Q39.6038,228.5 40.2288,227.9219 L40.2288,230.6406 Z " fill="#000000"/><text fill="#000000" font-family="sans-serif" font-size="14" lengthAdjust="spacing" textLength="119.4717" x="51.26" y="229.8467">DefaultTokenizer</text></g><!--class QueryTokenizerIterator--><g id="elem_QueryTokenizerIterator"><rect codeLine="14" fill="#F1F1F1" height="32" id="QueryTokenizerIterator" rx="3.5" ry="3.5" style="stroke:#181818;stroke-width:0.5;" width="195.2422" x="22.38" y="320"/><ellipse cx="37.38" cy="336" fill="#ADD1B2" rx="11" ry="11" style="stroke:#181818;stroke-width:1;"/><path d="M40.3488,341.6406 Q39.7706,341.9375 39.13,342.0781 Q38.4894,342.2344 37.7863,342.2344 Q35.2863,342.2344 33.9581,340.5938 Q32.6456,338.9375 32.6456,335.8125 Q32.6456,332.6875 33.9581,331.0313 Q35.2863,329.375 37.7863,329.375 Q38.4894,329.375 39.13,329.5313 Q39.7863,329.6875 40.3488,329.9844 L40.3488,332.7031 Q39.7238,332.125 39.13,331.8594 Q38.5363,331.5781 37.9113,331.5781 Q36.5675,331.5781 35.88,332.6563 Q35.1925,333.7188 35.1925,335.8125 Q35.1925,337.9063 35.88,338.9844 Q36.5675,340.0469 37.9113,340.0469 Q38.5363,340.0469 39.13,339.7813 Q39.7238,339.5 40.3488,338.9219 L40.3488,341.6406 Z " fill="#000000"/><text fill="#000000" font-family="sans-serif" font-size="14" lengthAdjust="spacing" textLength="163.2422" x="51.38" y="340.8467">QueryTokenizerIterator</text></g><!--class QueryRequestIterator--><g id="elem_QueryRequestIterator"><rect codeLine="16" fill="#F1F1F1" height="32" id="QueryRequestIterator" rx="3.5" ry="3.5" style="stroke:#181818;stroke-width:0.5;" width="184.4209" x="293.79" y="320"/><ellipse cx="308.79" cy="336" fill="#ADD1B2" rx="11" ry="11" style="stroke:#181818;stroke-width:1;"/><path d="M311.7588,341.6406 Q311.1806,341.9375 310.54,342.0781 Q309.8994,342.2344 309.1963,342.2344 Q306.6963,342.2344 305.3681,340.5938 Q304.0556,338.9375 304.0556,335.8125 Q304.0556,332.6875 305.3681,331.0313 Q306.6963,329.375 309.1963,329.375 Q309.8994,329.375 310.54,329.5313 Q311.1963,329.6875 311.7588,329.9844 L311.7588,332.7031 Q311.1338,332.125 310.54,331.8594 Q309.9463,331.5781 309.3213,331.5781 Q307.9775,331.5781 307.29,332.6563 Q306.6025,333.7188 306.6025,335.8125 Q306.6025,337.9063 307.29,338.9844 Q307.9775,340.0469 309.3213,340.0469 Q309.9463,340.0469 310.54,339.7813 Q311.1338,339.5 311.7588,338.9219 L311.7588,341.6406 Z " fill="#000000"/><text fill="#000000" font-family="sans-serif" font-size="14" lengthAdjust="spacing" textLength="152.4209" x="322.79" y="340.8467">QueryRequestIterator</text></g><!--class QueryPathDFA--><g id="elem_QueryPathDFA"><rect codeLine="25" fill="#F1F1F1" height="32" id="QueryPathDFA" rx="3.5" ry="3.5" style="stroke:#181818;stroke-width:0.5;" width="134.3408" x="633.83" y="209"/><ellipse cx="648.83" cy="225" fill="#ADD1B2" rx="11" ry="11" style="stroke:#181818;stroke-width:1;"/><path d="M651.7988,230.6406 Q651.2206,230.9375 650.58,231.0781 Q649.9394,231.2344 649.2363,231.2344 Q646.7363,231.2344 645.4081,229.5938 Q644.0956,227.9375 644.0956,224.8125 Q644.0956,221.6875 645.4081,220.0313 Q646.7363,218.375 649.2363,218.375 Q649.9394,218.375 650.58,218.5313 Q651.2363,218.6875 651.7988,218.9844 L651.7988,221.7031 Q651.1738,221.125 650.58,220.8594 Q649.9863,220.5781 649.3613,220.5781 Q648.0175,220.5781 647.33,221.6563 Q646.6425,222.7188 646.6425,224.8125 Q646.6425,226.9063 647.33,227.9844 Q648.0175,229.0469 649.3613,229.0469 Q649.9863,229.0469 650.58,228.7813 Q651.1738,228.5 651.7988,227.9219 L651.7988,230.6406 Z " fill="#000000"/><text fill="#000000" font-family="sans-serif" font-size="14" lengthAdjust="spacing" textLength="102.3408" x="662.83" y="229.8467">QueryPathDFA</text></g><!--class QueryPathDFABuilder--><g id="elem_QueryPathDFABuilder"><rect codeLine="26" fill="#F1F1F1" height="32" id="QueryPathDFABuilder" rx="3.5" ry="3.5" style="stroke:#181818;stroke-width:0.5;" width="183.8535" x="866.07" y="209"/><ellipse cx="881.07" cy="225" fill="#ADD1B2" rx="11" ry="11" style="stroke:#181818;stroke-width:1;"/><path d="M884.0388,230.6406 Q883.4606,230.9375 882.82,231.0781 Q882.1794,231.2344 881.4763,231.2344 Q878.9763,231.2344 877.6481,229.5938 Q876.3356,227.9375 876.3356,224.8125 Q876.3356,221.6875 877.6481,220.0313 Q878.9763,218.375 881.4763,218.375 Q882.1794,218.375 882.82,218.5313 Q883.4763,218.6875 884.0388,218.9844 L884.0388,221.7031 Q883.4138,221.125 882.82,220.8594 Q882.2263,220.5781 881.6013,220.5781 Q880.2575,220.5781 879.57,221.6563 Q878.8825,222.7188 878.8825,224.8125 Q878.8825,226.9063 879.57,227.9844 Q880.2575,229.0469 881.6013,229.0469 Q882.2263,229.0469 882.82,228.7813 Q883.4138,228.5 884.0388,227.9219 L884.0388,230.6406 Z " fill="#000000"/><text fill="#000000" font-family="sans-serif" font-size="14" lengthAdjust="spacing" textLength="151.8535" x="895.07" y="229.8467">QueryPathDFABuilder</text></g><!--reverse link InputOutputEngine to DefaultInputOutputEngine--><g id="link_InputOutputEngine_DefaultInputOutputEngine"><path d="M386,110.45 C386,138.76 386,180.6 386,208.75 " fill="transparent" id="InputOutputEngine-backto-DefaultInputOutputEngine" style="stroke:#191919;stroke-width:1;stroke-dasharray:7.0,7.0;"/><polygon fill="transparent" points="386,92.45,380,110.45,392,110.45,386,92.45" style="stroke:#191919;stroke-width:1;"/></g><!--reverse link Tokenizer to DefaultTokenizer--><g id="link_Tokenizer_DefaultTokenizer"><path d="M98,110.45 C98,138.76 98,180.6 98,208.75 " fill="transparent" id="Tokenizer-backto-DefaultTokenizer" style="stroke:#191919;stroke-width:1;stroke-dasharray:7.0,7.0;"/><polygon fill="transparent" points="98,92.45,92,110.45,104,110.45,98,92.45" style="stroke:#191919;stroke-width:1;"/></g><!--link DefaultTokenizer to QueryTokenizerIterator--><g id="link_DefaultTokenizer_QueryTokenizerIterator"><path codeLine="18" d="M101.06,241.16 C105.24,261.86 111.5008,292.919 115.7108,313.739 " fill="transparent" id="DefaultTokenizer-to-QueryTokenizerIterator" style="stroke:#191919;stroke-width:1;"/><polygon fill="#191919" points="116.9,319.62,119.0369,310.0058,115.909,314.7192,111.1956,311.5913,116.9,319.62" style="stroke:#191919;stroke-width:1;"/><polygon fill="#000000" points="116.3093,286.4675,117.4004,277.0198,111.6388,278.1828,116.3093,286.4675" style="stroke:#000000;stroke-width:1;"/><text fill="#000000" font-family="sans-serif" font-size="13" lengthAdjust="spacing" textLength="47.0361" x="124.32" y="286.0669">returns</text></g><!--link DefaultInputOutputEngine to QueryRequestIterator--><g id="link_DefaultInputOutputEngine_QueryRequestIterator"><path codeLine="19" d="M386,241.16 C386,261.86 386,292.8 386,313.62 " fill="transparent" id="DefaultInputOutputEngine-to-QueryRequestIterator" style="stroke:#191919;stroke-width:1;"/><polygon fill="#191919" points="386,319.62,390,310.62,386,314.62,382,310.62,386,319.62" style="stroke:#191919;stroke-width:1;"/><polygon fill="#000000" points="391,286.5664,393.9389,277.5213,388.0611,277.5213,391,286.5664" style="stroke:#000000;stroke-width:1;"/><text fill="#000000" font-family="sans-serif" font-size="13" lengthAdjust="spacing" textLength="47.0361" x="400" y="286.0669">returns</text></g><!--reverse link DefaultTokenizer to DefaultInputOutputEngine--><g id="link_DefaultTokenizer_DefaultInputOutputEngine"><path codeLine="21" d="M180.05,225 C211.71,225 243.06,225 277.52,225 " fill="transparent" id="DefaultTokenizer-backto-DefaultInputOutputEngine" style="stroke:#191919;stroke-width:1;"/><polygon fill="#191919" points="174.05,225,183.05,229,179.05,225,183.05,221,174.05,225" style="stroke:#191919;stroke-width:1;"/><polygon fill="#000000" points="190.86,213.5664,199.9051,216.5053,199.9051,210.6275,190.86,213.5664" style="stroke:#000000;stroke-width:1;"/><text fill="#000000" font-family="sans-serif" font-size="13" lengthAdjust="spacing" textLength="55.6626" x="204.86" y="218.0669">relies on</text></g><!--reverse link QueryPathDFA to QueryPathDFABuilder--><g id="link_QueryPathDFA_QueryPathDFABuilder"><path codeLine="30" d="M774.52,225 C804.27,225 833.69,225 865.81,225 " fill="transparent" id="QueryPathDFA-backto-QueryPathDFABuilder" style="stroke:#191919;stroke-width:1;"/><polygon fill="#191919" points="768.52,225,777.52,229,773.52,225,777.52,221,768.52,225" style="stroke:#191919;stroke-width:1;"/><polygon fill="#000000" points="785.62,213.5664,794.6651,216.5053,794.6651,210.6275,785.62,213.5664" style="stroke:#000000;stroke-width:1;"/><text fill="#000000" font-family="sans-serif" font-size="13" lengthAdjust="spacing" textLength="48.3247" x="799.62" y="218.0669">creates</text></g><!--link DefaultInputOutputEngine to QueryPathDFA--><g id="link_DefaultInputOutputEngine_QueryPathDFA"><path codeLine="33" d="M494.41,225 C540.68,225 587.23,225 627.75,225 " fill="transparent" id="DefaultInputOutputEngine-to-QueryPathDFA" style="stroke:#191919;stroke-width:1;"/><polygon fill="#191919" points="633.75,225,624.75,221,628.75,225,624.75,229,633.75,225" style="stroke:#191919;stroke-width:1;"/><polygon fill="#000000" points="521.42,236.5664,512.3749,233.6275,512.3749,239.5053,521.42,236.5664" style="stroke:#000000;stroke-width:1;"/><text fill="#000000" font-family="sans-serif" font-size="13" lengthAdjust="spacing" textLength="90.397" x="525.42" y="241.0669">use per query</text></g><!--link DefaultInputOutputEngine to QueryPathDFABuilder--><g id="link_DefaultInputOutputEngine_QueryPathDFABuilder"><path codeLine="34" d="M419.38,208.53 C494.46,173.73 681.92,99.45 833,144.08 C875.64,156.68 912.8751,184.9512 935.6951,204.7212 " fill="transparent" id="DefaultInputOutputEngine-to-QueryPathDFABuilder" style="stroke:#191919;stroke-width:1;"/><polygon fill="#191919" points="940.23,208.65,936.0469,199.7336,936.451,205.376,930.8085,205.7801,940.23,208.65" style="stroke:#191919;stroke-width:1;"/><polygon fill="#000000" points="724.9999,130.5295,715.9333,127.6574,715.9767,133.5351,724.9999,130.5295" style="stroke:#000000;stroke-width:1;"/><text fill="#000000" font-family="sans-serif" font-size="13" lengthAdjust="spacing" textLength="103.7461" x="729" y="135.0669">setup per query</text></g><!--SRC=[ZP5DJuD048RFxAyOJsfC4yySIAhLX9EVzsQXqxA1NRQxiuVQ-D-THOCKgF54c3VF-m4NLA56qD9vuMjbh7HImtqZlLyIELK4mhnipPlwGBWLbTeWeBPq08swGAQ4bMKjTmWC1rgtWU83pKuPF8f46KAtbIL27lMdJdxeL35KtziQ3OSulfOn7bQubQ6X2GPAsuPB6_ApdYTqRpkafbal0TsXF-TSIb8xabzn7z3JG9naB1RP6QiK759mnaFMSzDbFJ_A6j9_uGtpurAHRHHwQ0ra83v_VzW-9gsjfEfuClIPBwl7vTpjBgXcW-ueBfFa1ehuTdMTZZ2EI6QWxtf38ONIeIICinWwlyjDmE0HB7js6nZ_F_lJ9WNFdzGEJRu0]--></g></svg>