<?xml version="1.0" encoding="UTF-8"?>
<svg xmlns="http://www.w3.org/2000/svg" xmlns:xlink="http://www.w3.org/1999/xlink" width="76" height="268" viewBox="0 0 76 268">
<path fill-rule="evenodd" fill="rgb(0%, 0%, 0%)" fill-opacity="1" d="M 10.800781 6 C 10.800781 -0.398438 1.199219 -0.398438 1.199219 6 C 1.199219 12.398438 10.800781 12.398438 10.800781 6 Z M 9.199219 6 C 9.199219 1.734375 2.800781 1.734375 2.800781 6 C 2.800781 10.265625 9.199219 10.265625 9.199219 6 Z M 9.199219 6 "/>
<path fill-rule="evenodd" fill="rgb(0%, 0%, 0%)" fill-opacity="1" d="M 74.800781 6 C 74.800781 -0.398438 65.199219 -0.398438 65.199219 6 C 65.199219 12.398438 74.800781 12.398438 74.800781 6 Z M 73.199219 6 C 73.199219 1.734375 66.800781 1.734375 66.800781 6 C 66.800781 10.265625 73.199219 10.265625 73.199219 6 Z M 73.199219 6 "/>
<path fill-rule="evenodd" fill="rgb(0%, 0%, 0%)" fill-opacity="1" d="M 10.800781 70 C 10.800781 63.601562 1.199219 63.601562 1.199219 70 C 1.199219 76.398438 10.800781 76.398438 10.800781 70 Z M 9.199219 70 C 9.199219 65.734375 2.800781 65.734375 2.800781 70 C 2.800781 74.265625 9.199219 74.265625 9.199219 70 Z M 9.199219 70 "/>
<path fill-rule="evenodd" fill="rgb(0%, 0%, 0%)" fill-opacity="1" d="M 74.800781 70 C 74.800781 63.601562 65.199219 63.601562 65.199219 70 C 65.199219 76.398438 74.800781 76.398438 74.800781 70 Z M 73.199219 70 C 73.199219 65.734375 66.800781 65.734375 66.800781 70 C 66.800781 74.265625 73.199219 74.265625 73.199219 70 Z M 73.199219 70 "/>
<path fill-rule="evenodd" fill="rgb(0%, 0%, 0%)" fill-opacity="1" d="M 74.800781 134 C 74.800781 127.601562 65.199219 127.601562 65.199219 134 C 65.199219 140.398438 74.800781 140.398438 74.800781 134 Z M 73.199219 134 C 73.199219 129.734375 66.800781 129.734375 66.800781 134 C 66.800781 138.265625 73.199219 138.265625 73.199219 134 Z M 73.199219 134 "/>
<path fill-rule="evenodd" fill="rgb(0%, 0%, 0%)" fill-opacity="1" d="M 10.800781 134 C 10.800781 127.601562 1.199219 127.601562 1.199219 134 C 1.199219 140.398438 10.800781 140.398438 10.800781 134 Z M 9.199219 134 C 9.199219 129.734375 2.800781 129.734375 2.800781 134 C 2.800781 138.265625 9.199219 138.265625 9.199219 134 Z M 9.199219 134 "/>
<path fill-rule="evenodd" fill="rgb(0%, 0%, 0%)" fill-opacity="1" d="M 10.800781 198 C 10.800781 191.601562 1.199219 191.601562 1.199219 198 C 1.199219 204.398438 10.800781 204.398438 10.800781 198 Z M 9.199219 198 C 9.199219 193.734375 2.800781 193.734375 2.800781 198 C 2.800781 202.265625 9.199219 202.265625 9.199219 198 Z M 9.199219 198 "/>
<path fill-rule="evenodd" fill="rgb(0%, 0%, 0%)" fill-opacity="1" d="M 74.800781 198 C 74.800781 191.601562 65.199219 191.601562 65.199219 198 C 65.199219 204.398438 74.800781 204.398438 74.800781 198 Z M 73.199219 198 C 73.199219 193.734375 66.800781 193.734375 66.800781 198 C 66.800781 202.265625 73.199219 202.265625 73.199219 198 Z M 73.199219 198 "/>
<path fill-rule="evenodd" fill="rgb(0%, 0%, 0%)" fill-opacity="1" d="M 74.800781 262 C 74.800781 255.601562 65.199219 255.601562 65.199219 262 C 65.199219 268.398438 74.800781 268.398438 74.800781 262 Z M 73.199219 262 C 73.199219 257.734375 66.800781 257.734375 66.800781 262 C 66.800781 266.265625 73.199219 266.265625 73.199219 262 Z M 73.199219 262 "/>
<path fill-rule="evenodd" fill="rgb(0%, 0%, 0%)" fill-opacity="1" d="M 10.800781 262 C 10.800781 255.601562 1.199219 255.601562 1.199219 262 C 1.199219 268.398438 10.800781 268.398438 10.800781 262 Z M 9.199219 262 C 9.199219 257.734375 2.800781 257.734375 2.800781 262 C 2.800781 266.265625 9.199219 266.265625 9.199219 262 Z M 9.199219 262 "/>
<path fill="none" stroke-width="1.6" stroke-linecap="butt" stroke-linejoin="round" stroke="rgb(0%, 0%, 0%)" stroke-opacity="1" stroke-miterlimit="10" d="M 192 516.5 L 192 570.5 " transform="matrix(1, 0, 0, -1, -186, 774)"/>
<path fill-rule="evenodd" fill="rgb(0%, 0%, 0%)" fill-opacity="1" stroke-width="1.6" stroke-linecap="butt" stroke-linejoin="round" stroke="rgb(0%, 0%, 0%)" stroke-opacity="1" stroke-miterlimit="10" d="M 192 570.5 L 189.667969 563.5 L 194.332031 563.5 Z M 192 570.5 " transform="matrix(1, 0, 0, -1, -186, 774)"/>
<path fill="none" stroke-width="1.6" stroke-linecap="butt" stroke-linejoin="round" stroke="rgb(0%, 0%, 0%)" stroke-opacity="1" stroke-miterlimit="10" d="M 256 516.5 L 256 570.5 " transform="matrix(1, 0, 0, -1, -186, 774)"/>
<path fill-rule="evenodd" fill="rgb(0%, 0%, 0%)" fill-opacity="1" stroke-width="1.6" stroke-linecap="butt" stroke-linejoin="round" stroke="rgb(0%, 0%, 0%)" stroke-opacity="1" stroke-miterlimit="10" d="M 256 570.5 L 253.667969 563.5 L 258.332031 563.5 Z M 256 570.5 " transform="matrix(1, 0, 0, -1, -186, 774)"/>
<path fill="none" stroke-width="1.6" stroke-linecap="butt" stroke-linejoin="round" stroke="rgb(0%, 0%, 0%)" stroke-opacity="1" stroke-miterlimit="10" d="M 252.816406 515.183594 L 195.890625 572.109375 " transform="matrix(1, 0, 0, -1, -186, 774)"/>
<path fill-rule="evenodd" fill="rgb(0%, 0%, 0%)" fill-opacity="1" stroke-width="1.6" stroke-linecap="butt" stroke-linejoin="round" stroke="rgb(0%, 0%, 0%)" stroke-opacity="1" stroke-miterlimit="10" d="M 195.890625 572.109375 L 199.191406 565.511719 L 202.488281 568.808594 Z M 195.890625 572.109375 " transform="matrix(1, 0, 0, -1, -186, 774)"/>
<path fill="none" stroke-width="1.6" stroke-linecap="butt" stroke-linejoin="round" stroke="rgb(0%, 0%, 0%)" stroke-opacity="1" stroke-miterlimit="10" d="M 195.183594 515.183594 L 252.109375 572.109375 " transform="matrix(1, 0, 0, -1, -186, 774)"/>
<path fill-rule="evenodd" fill="rgb(0%, 0%, 0%)" fill-opacity="1" stroke-width="1.6" stroke-linecap="butt" stroke-linejoin="round" stroke="rgb(0%, 0%, 0%)" stroke-opacity="1" stroke-miterlimit="10" d="M 252.109375 572.109375 L 245.511719 568.808594 L 248.808594 565.511719 Z M 252.109375 572.109375 " transform="matrix(1, 0, 0, -1, -186, 774)"/>
<path fill="none" stroke-width="1.6" stroke-linecap="butt" stroke-linejoin="round" stroke="rgb(0%, 0%, 0%)" stroke-opacity="1" stroke-miterlimit="10" d="M 256 580.5 L 256 634.5 " transform="matrix(1, 0, 0, -1, -186, 774)"/>
<path fill-rule="evenodd" fill="rgb(0%, 0%, 0%)" fill-opacity="1" stroke-width="1.6" stroke-linecap="butt" stroke-linejoin="round" stroke="rgb(0%, 0%, 0%)" stroke-opacity="1" stroke-miterlimit="10" d="M 256 634.5 L 253.667969 627.5 L 258.332031 627.5 Z M 256 634.5 " transform="matrix(1, 0, 0, -1, -186, 774)"/>
<path fill="none" stroke-width="1.6" stroke-linecap="butt" stroke-linejoin="round" stroke="rgb(0%, 0%, 0%)" stroke-opacity="1" stroke-miterlimit="10" d="M 256 644.5 L 256 698.5 " transform="matrix(1, 0, 0, -1, -186, 774)"/>
<path fill-rule="evenodd" fill="rgb(0%, 0%, 0%)" fill-opacity="1" stroke-width="1.6" stroke-linecap="butt" stroke-linejoin="round" stroke="rgb(0%, 0%, 0%)" stroke-opacity="1" stroke-miterlimit="10" d="M 256 698.5 L 253.667969 691.5 L 258.332031 691.5 Z M 256 698.5 " transform="matrix(1, 0, 0, -1, -186, 774)"/>
<path fill="none" stroke-width="1.6" stroke-linecap="butt" stroke-linejoin="round" stroke="rgb(0%, 0%, 0%)" stroke-opacity="1" stroke-miterlimit="10" d="M 256 708.5 L 256 762.5 " transform="matrix(1, 0, 0, -1, -186, 774)"/>
<path fill-rule="evenodd" fill="rgb(0%, 0%, 0%)" fill-opacity="1" stroke-width="1.6" stroke-linecap="butt" stroke-linejoin="round" stroke="rgb(0%, 0%, 0%)" stroke-opacity="1" stroke-miterlimit="10" d="M 256 762.5 L 253.667969 755.5 L 258.332031 755.5 Z M 256 762.5 " transform="matrix(1, 0, 0, -1, -186, 774)"/>
<path fill="none" stroke-width="1.6" stroke-linecap="butt" stroke-linejoin="round" stroke="rgb(0%, 0%, 0%)" stroke-opacity="1" stroke-miterlimit="10" d="M 252.816406 579.183594 L 195.890625 636.109375 " transform="matrix(1, 0, 0, -1, -186, 774)"/>
<path fill-rule="evenodd" fill="rgb(0%, 0%, 0%)" fill-opacity="1" stroke-width="1.6" stroke-linecap="butt" stroke-linejoin="round" stroke="rgb(0%, 0%, 0%)" stroke-opacity="1" stroke-miterlimit="10" d="M 195.890625 636.109375 L 199.191406 629.511719 L 202.488281 632.808594 Z M 195.890625 636.109375 " transform="matrix(1, 0, 0, -1, -186, 774)"/>
<path fill="none" stroke-width="1.6" stroke-linecap="butt" stroke-linejoin="round" stroke="rgb(0%, 0%, 0%)" stroke-opacity="1" stroke-miterlimit="10" d="M 252.816406 643.183594 L 195.890625 700.109375 " transform="matrix(1, 0, 0, -1, -186, 774)"/>
<path fill-rule="evenodd" fill="rgb(0%, 0%, 0%)" fill-opacity="1" stroke-width="1.6" stroke-linecap="butt" stroke-linejoin="round" stroke="rgb(0%, 0%, 0%)" stroke-opacity="1" stroke-miterlimit="10" d="M 195.890625 700.109375 L 199.191406 693.511719 L 202.488281 696.808594 Z M 195.890625 700.109375 " transform="matrix(1, 0, 0, -1, -186, 774)"/>
<path fill="none" stroke-width="1.6" stroke-linecap="butt" stroke-linejoin="round" stroke="rgb(0%, 0%, 0%)" stroke-opacity="1" stroke-miterlimit="10" d="M 252.816406 707.183594 L 195.890625 764.109375 " transform="matrix(1, 0, 0, -1, -186, 774)"/>
<path fill-rule="evenodd" fill="rgb(0%, 0%, 0%)" fill-opacity="1" stroke-width="1.6" stroke-linecap="butt" stroke-linejoin="round" stroke="rgb(0%, 0%, 0%)" stroke-opacity="1" stroke-miterlimit="10" d="M 195.890625 764.109375 L 199.191406 757.511719 L 202.488281 760.808594 Z M 195.890625 764.109375 " transform="matrix(1, 0, 0, -1, -186, 774)"/>
<path fill="none" stroke-width="1.6" stroke-linecap="butt" stroke-linejoin="round" stroke="rgb(0%, 0%, 0%)" stroke-opacity="1" stroke-miterlimit="10" d="M 192 580.5 L 192 634.5 " transform="matrix(1, 0, 0, -1, -186, 774)"/>
<path fill-rule="evenodd" fill="rgb(0%, 0%, 0%)" fill-opacity="1" stroke-width="1.6" stroke-linecap="butt" stroke-linejoin="round" stroke="rgb(0%, 0%, 0%)" stroke-opacity="1" stroke-miterlimit="10" d="M 192 634.5 L 189.667969 627.5 L 194.332031 627.5 Z M 192 634.5 " transform="matrix(1, 0, 0, -1, -186, 774)"/>
<path fill="none" stroke-width="1.6" stroke-linecap="butt" stroke-linejoin="round" stroke="rgb(0%, 0%, 0%)" stroke-opacity="1" stroke-miterlimit="10" d="M 192 644.5 L 192 698.5 " transform="matrix(1, 0, 0, -1, -186, 774)"/>
<path fill-rule="evenodd" fill="rgb(0%, 0%, 0%)" fill-opacity="1" stroke-width="1.6" stroke-linecap="butt" stroke-linejoin="round" stroke="rgb(0%, 0%, 0%)" stroke-opacity="1" stroke-miterlimit="10" d="M 192 698.5 L 189.667969 691.5 L 194.332031 691.5 Z M 192 698.5 " transform="matrix(1, 0, 0, -1, -186, 774)"/>
<path fill="none" stroke-width="1.6" stroke-linecap="butt" stroke-linejoin="round" stroke="rgb(0%, 0%, 0%)" stroke-opacity="1" stroke-miterlimit="10" d="M 192 708.5 L 192 762.5 " transform="matrix(1, 0, 0, -1, -186, 774)"/>
<path fill-rule="evenodd" fill="rgb(0%, 0%, 0%)" fill-opacity="1" stroke-width="1.6" stroke-linecap="butt" stroke-linejoin="round" stroke="rgb(0%, 0%, 0%)" stroke-opacity="1" stroke-miterlimit="10" d="M 192 762.5 L 189.667969 755.5 L 194.332031 755.5 Z M 192 762.5 " transform="matrix(1, 0, 0, -1, -186, 774)"/>
<path fill="none" stroke-width="1.6" stroke-linecap="butt" stroke-linejoin="round" stroke="rgb(0%, 0%, 0%)" stroke-opacity="1" stroke-miterlimit="10" d="M 195.183594 579.183594 L 252.109375 636.109375 " transform="matrix(1, 0, 0, -1, -186, 774)"/>
<path fill-rule="evenodd" fill="rgb(0%, 0%, 0%)" fill-opacity="1" stroke-width="1.6" stroke-linecap="butt" stroke-linejoin="round" stroke="rgb(0%, 0%, 0%)" stroke-opacity="1" stroke-miterlimit="10" d="M 252.109375 636.109375 L 245.511719 632.808594 L 248.808594 629.511719 Z M 252.109375 636.109375 " transform="matrix(1, 0, 0, -1, -186, 774)"/>
<path fill="none" stroke-width="1.6" stroke-linecap="butt" stroke-linejoin="round" stroke="rgb(0%, 0%, 0%)" stroke-opacity="1" stroke-miterlimit="10" d="M 195.183594 643.183594 L 252.109375 700.109375 " transform="matrix(1, 0, 0, -1, -186, 774)"/>
<path fill-rule="evenodd" fill="rgb(0%, 0%, 0%)" fill-opacity="1" stroke-width="1.6" stroke-linecap="butt" stroke-linejoin="round" stroke="rgb(0%, 0%, 0%)" stroke-opacity="1" stroke-miterlimit="10" d="M 252.109375 700.109375 L 245.511719 696.808594 L 248.808594 693.511719 Z M 252.109375 700.109375 " transform="matrix(1, 0, 0, -1, -186, 774)"/>
<path fill="none" stroke-width="1.6" stroke-linecap="butt" stroke-linejoin="round" stroke="rgb(0%, 0%, 0%)" stroke-opacity="1" stroke-miterlimit="10" d="M 195.183594 707.183594 L 252.109375 764.109375 " transform="matrix(1, 0, 0, -1, -186, 774)"/>
<path fill-rule="evenodd" fill="rgb(0%, 0%, 0%)" fill-opacity="1" stroke-width="1.6" stroke-linecap="butt" stroke-linejoin="round" stroke="rgb(0%, 0%, 0%)" stroke-opacity="1" stroke-miterlimit="10" d="M 252.109375 764.109375 L 245.511719 760.808594 L 248.808594 757.511719 Z M 252.109375 764.109375 " transform="matrix(1, 0, 0, -1, -186, 774)"/>
</svg>
